<?xml version="1.0" encoding="utf-8"?>
<!-- Generator: Adobe Illustrator 21.0.0, SVG Export Plug-In . SVG Version: 6.00 Build 0)  -->
<svg version="1.1" id="图层_1" xmlns="http://www.w3.org/2000/svg" xmlns:xlink="http://www.w3.org/1999/xlink" x="0px" y="0px"
	 viewBox="0 0 189.2 182.8" style="enable-background:new 0 0 189.2 182.8;" xml:space="preserve">
<style type="text/css">
	.st0{fill:#FFFFFF;}
	.st1{opacity:0.9;}
	.st2{clip-path:url(#SVGID_2_);fill:#FFFFFF;}
	.st3{opacity:0.8;}
	.st4{clip-path:url(#SVGID_4_);fill:#FFFFFF;}
	.st5{clip-path:url(#SVGID_6_);}
	.st6{filter:url(#Adobe_OpacityMaskFilter);}
	.st7{clip-path:url(#SVGID_8_);fill:url(#SVGID_10_);}
	.st8{clip-path:url(#SVGID_8_);mask:url(#SVGID_9_);fill:url(#SVGID_11_);}
	.st9{opacity:0.7;}
	.st10{clip-path:url(#SVGID_13_);}
	.st11{filter:url(#Adobe_OpacityMaskFilter_1_);}
	.st12{clip-path:url(#SVGID_15_);fill:url(#SVGID_17_);}
	.st13{clip-path:url(#SVGID_15_);mask:url(#SVGID_16_);fill:url(#SVGID_18_);}
</style>
<g>
	<path class="st0" d="M54.3,55.7c-0.9-0.1-1.7,0.7-1.7,1.6V98v26.6c0,0.9,0.5,1.8,1.3,2.4l17.8,11.8c0.9,0.6,2.2,0,2.2-1.2V76.8
		C73.9,65.6,65.3,56.5,54.3,55.7"/>
	<g class="st1">
		<g>
			<defs>
				<rect id="SVGID_1_" x="84.5" y="47.1" width="21.2" height="83.5"/>
			</defs>
			<clipPath id="SVGID_2_">
				<use xlink:href="#SVGID_1_"  style="overflow:visible;"/>
			</clipPath>
			<path class="st2" d="M86.2,47.1c-0.9-0.1-1.7,0.7-1.7,1.6v8.5v32.3V98v18.1c0,0.9,0.5,1.8,1.3,2.4l17.8,11.8
				c0.9,0.6,2.2,0,2.2-1.2V87.5V68.3C105.7,57.1,97.1,48,86.2,47.1"/>
		</g>
	</g>
	<g class="st3">
		<g>
			<defs>
				<rect id="SVGID_3_" x="116.4" y="40" width="21.2" height="83.5"/>
			</defs>
			<clipPath id="SVGID_4_">
				<use xlink:href="#SVGID_3_"  style="overflow:visible;"/>
			</clipPath>
			<path class="st4" d="M118,40c-0.9-0.1-1.7,0.7-1.7,1.6v40.8v26.6c0,0.9,0.5,1.8,1.3,2.4l17.8,11.8c0.9,0.6,2.2,0,2.2-1.2V61.2
				C137.6,50,129,40.9,118,40"/>
		</g>
	</g>
	<g class="st3">
		<g>
			<defs>
				<rect id="SVGID_5_" x="84.5" y="57.1" width="13.3" height="69.4"/>
			</defs>
			<clipPath id="SVGID_6_">
				<use xlink:href="#SVGID_5_"  style="overflow:visible;"/>
			</clipPath>
			<g class="st5">
				<defs>
					<path id="SVGID_7_" d="M84.5,57.1L84.5,57.1v32.4v8.5v18.1c0,0.9,0.5,1.8,1.3,2.4l12,8V76.8C97.8,67.9,92.3,60.3,84.5,57.1"/>
				</defs>
				<clipPath id="SVGID_8_">
					<use xlink:href="#SVGID_7_"  style="overflow:visible;"/>
				</clipPath>
				<defs>
					<filter id="Adobe_OpacityMaskFilter" filterUnits="userSpaceOnUse" x="54.5" y="51.4" width="73.3" height="80.8">
						<feColorMatrix  type="matrix" values="1 0 0 0 0  0 1 0 0 0  0 0 1 0 0  0 0 0 1 0"/>
					</filter>
				</defs>
				<mask maskUnits="userSpaceOnUse" x="54.5" y="51.4" width="73.3" height="80.8" id="SVGID_9_">
					<g class="st6">
						
							<linearGradient id="SVGID_10_" gradientUnits="userSpaceOnUse" x1="-318.7544" y1="420.2323" x2="-317.7544" y2="420.2323" gradientTransform="matrix(-26.8144 46.4438 46.4438 26.8144 -27959.793 3604.4285)">
							<stop  offset="0" style="stop-color:#FFFFFF"/>
							<stop  offset="0" style="stop-color:#FFFFFF"/>
							<stop  offset="0" style="stop-color:#FFFFFF"/>
							<stop  offset="0.8" style="stop-color:#E6E6E6"/>
							<stop  offset="1" style="stop-color:#FFFFFF"/>
							<stop  offset="1" style="stop-color:#E6E6E6"/>
						</linearGradient>
						<polygon class="st7" points="127.8,74.5 94.5,132.2 54.5,109.2 87.8,51.4 						"/>
					</g>
				</mask>
				
					<linearGradient id="SVGID_11_" gradientUnits="userSpaceOnUse" x1="-318.7544" y1="420.2323" x2="-317.7544" y2="420.2323" gradientTransform="matrix(-26.8144 46.4438 46.4438 26.8144 -27959.793 3604.4285)">
					<stop  offset="0" style="stop-color:#FFFFFF"/>
					<stop  offset="0" style="stop-color:#1C37A6"/>
					<stop  offset="0" style="stop-color:#1F467E"/>
					<stop  offset="0.8" style="stop-color:#CDDEF4"/>
					<stop  offset="1" style="stop-color:#DCE9F4"/>
					<stop  offset="1" style="stop-color:#FFFFFF"/>
				</linearGradient>
				<polygon class="st8" points="127.8,74.5 94.5,132.2 54.5,109.2 87.8,51.4 				"/>
			</g>
		</g>
	</g>
	<g class="st9">
		<g>
			<defs>
				<rect id="SVGID_12_" x="116.4" y="50" width="13.3" height="69.4"/>
			</defs>
			<clipPath id="SVGID_13_">
				<use xlink:href="#SVGID_12_"  style="overflow:visible;"/>
			</clipPath>
			<g class="st10">
				<defs>
					<path id="SVGID_14_" d="M116.4,50L116.4,50v32.4v8.5V109c0,0.9,0.5,1.8,1.3,2.4l12,8V69.7C129.6,60.8,124.1,53.2,116.4,50"/>
				</defs>
				<clipPath id="SVGID_15_">
					<use xlink:href="#SVGID_14_"  style="overflow:visible;"/>
				</clipPath>
				<defs>
					<filter id="Adobe_OpacityMaskFilter_1_" filterUnits="userSpaceOnUse" x="86.3" y="44.3" width="73.3" height="80.8">
						<feColorMatrix  type="matrix" values="1 0 0 0 0  0 1 0 0 0  0 0 1 0 0  0 0 0 1 0"/>
					</filter>
				</defs>
				<mask maskUnits="userSpaceOnUse" x="86.3" y="44.3" width="73.3" height="80.8" id="SVGID_16_">
					<g class="st11">
						
							<linearGradient id="SVGID_17_" gradientUnits="userSpaceOnUse" x1="-318.7544" y1="420.2323" x2="-317.7544" y2="420.2323" gradientTransform="matrix(-26.8144 46.4438 46.4438 26.8144 -27927.9512 3597.3203)">
							<stop  offset="0" style="stop-color:#FFFFFF"/>
							<stop  offset="0" style="stop-color:#FFFFFF"/>
							<stop  offset="0" style="stop-color:#FFFFFF"/>
							<stop  offset="1" style="stop-color:#E6E6E6"/>
						</linearGradient>
						<polygon class="st12" points="159.7,67.4 126.3,125.1 86.3,102.1 119.7,44.3 						"/>
					</g>
				</mask>
				
					<linearGradient id="SVGID_18_" gradientUnits="userSpaceOnUse" x1="-318.7544" y1="420.2323" x2="-317.7544" y2="420.2323" gradientTransform="matrix(-26.8144 46.4438 46.4438 26.8144 -27927.9512 3597.3203)">
					<stop  offset="0" style="stop-color:#FFFFFF"/>
					<stop  offset="0" style="stop-color:#1C37A6"/>
					<stop  offset="0" style="stop-color:#1F467E"/>
					<stop  offset="1" style="stop-color:#CDDEF4"/>
				</linearGradient>
				<polygon class="st13" points="159.7,67.4 126.3,125.1 86.3,102.1 119.7,44.3 				"/>
			</g>
		</g>
	</g>
</g>
</svg>
