<?xml version="1.0" encoding="utf-8"?>
<!-- Generator: Adobe Illustrator 16.0.0, SVG Export Plug-In . SVG Version: 6.00 Build 0)  -->
<!DOCTYPE svg PUBLIC "-//W3C//DTD SVG 1.1//EN" "http://www.w3.org/Graphics/SVG/1.1/DTD/svg11.dtd">
<svg version="1.1" id="图层_1" xmlns="http://www.w3.org/2000/svg" xmlns:xlink="http://www.w3.org/1999/xlink" x="0px" y="0px"
	 width="1024px" height="1024px" viewBox="0 0 1024 1024" enable-background="new 0 0 1024 1024" xml:space="preserve">
<g>
	<path fill="#FFFFFF" d="M808.441,433.795V296.346h-0.054c0-163.71-132.692-296.419-296.415-296.419S215.53,132.635,215.53,296.346
		h0.028v137.449c-61.505,12.487-107.797,66.841-107.797,132.026V889.19c0,74.407,60.318,134.736,134.747,134.736h538.983
		c74.401,0,134.748-60.329,134.748-134.736V565.821C916.239,500.636,869.921,446.294,808.441,433.795z M323.327,296.346
		c0-104.182,84.454-188.629,188.646-188.629c104.192,0,188.645,84.448,188.645,188.629h0.026v134.737H323.355V296.346H323.327z"/>
</g>
</svg>
